<svg xmlns="http://www.w3.org/2000/svg" xmlns:xlink="http://www.w3.org/1999/xlink" width="500" zoomAndPan="magnify" viewBox="0 0 375 374.999991" height="500" preserveAspectRatio="xMidYMid meet" version="1.0"><path fill="#000000" d="M 161.09375 83.507812 C 159.363281 83.9375 157.644531 84.414062 155.9375 84.929688 C 154.230469 85.445312 152.539062 86.003906 150.859375 86.605469 C 149.179688 87.203125 147.515625 87.84375 145.867188 88.527344 C 144.222656 89.207031 142.589844 89.929688 140.976562 90.691406 C 139.367188 91.453125 137.773438 92.25 136.199219 93.089844 C 134.625 93.929688 133.074219 94.808594 131.546875 95.722656 C 130.015625 96.640625 128.507812 97.59375 127.023438 98.582031 C 125.542969 99.570312 124.082031 100.597656 122.652344 101.660156 C 121.21875 102.71875 119.8125 103.816406 118.433594 104.945312 C 117.054688 106.078125 115.703125 107.242188 114.382812 108.4375 C 113.058594 109.632812 111.765625 110.863281 110.503906 112.121094 C 109.242188 113.382812 108.011719 114.671875 106.816406 115.992188 C 105.617188 117.3125 104.453125 118.664062 103.320312 120.039062 C 102.1875 121.417969 101.089844 122.824219 100.027344 124.253906 C 98.964844 125.6875 97.9375 127.144531 96.945312 128.625 C 95.953125 130.105469 95 131.613281 94.082031 133.140625 C 93.164062 134.667969 92.28125 136.21875 91.441406 137.792969 C 90.601562 139.363281 89.796875 140.957031 89.035156 142.566406 C 88.269531 144.179688 87.546875 145.808594 86.863281 147.457031 C 86.179688 149.101562 85.539062 150.765625 84.9375 152.445312 C 84.332031 154.121094 83.773438 155.816406 83.253906 157.519531 C 82.734375 159.226562 82.257812 160.945312 81.824219 162.675781 C 81.390625 164.402344 81 166.140625 80.648438 167.890625 C 80.300781 169.640625 79.996094 171.394531 79.734375 173.160156 C 79.46875 174.921875 79.25 176.691406 79.074219 178.46875 C 78.898438 180.242188 78.765625 182.019531 78.675781 183.800781 C 78.589844 185.582031 78.542969 187.363281 78.542969 189.144531 C 78.542969 190.929688 78.585938 192.710938 78.671875 194.492188 C 78.757812 196.273438 78.886719 198.050781 79.0625 199.828125 C 79.234375 201.601562 79.453125 203.371094 79.710938 205.132812 C 79.972656 206.898438 80.277344 208.65625 80.621094 210.40625 C 80.96875 212.152344 81.359375 213.894531 81.792969 215.625 C 82.222656 217.351562 82.699219 219.070312 83.214844 220.777344 C 83.730469 222.484375 84.289062 224.179688 84.886719 225.855469 C 85.488281 227.535156 86.128906 229.199219 86.808594 230.847656 C 87.492188 232.496094 88.210938 234.125 88.972656 235.738281 C 89.734375 237.351562 90.535156 238.945312 91.375 240.515625 C 92.214844 242.089844 93.09375 243.640625 94.007812 245.171875 C 94.925781 246.703125 95.875 248.207031 96.867188 249.691406 C 97.855469 251.175781 98.882812 252.632812 99.941406 254.066406 C 101.003906 255.5 102.101562 256.90625 103.230469 258.285156 C 104.359375 259.664062 105.523438 261.015625 106.722656 262.335938 C 107.917969 263.660156 109.144531 264.949219 110.40625 266.210938 C 111.664062 267.472656 112.957031 268.703125 114.277344 269.902344 C 115.597656 271.101562 116.945312 272.265625 118.324219 273.398438 C 119.703125 274.53125 121.105469 275.628906 122.539062 276.691406 C 123.96875 277.753906 125.425781 278.78125 126.90625 279.773438 C 128.390625 280.765625 129.894531 281.71875 131.425781 282.636719 C 132.953125 283.554688 134.503906 284.433594 136.074219 285.277344 C 137.648438 286.117188 139.238281 286.921875 140.851562 287.683594 C 142.460938 288.445312 144.09375 289.171875 145.738281 289.855469 C 147.386719 290.539062 149.046875 291.179688 150.726562 291.78125 C 152.40625 292.382812 154.097656 292.945312 155.804688 293.460938 C 157.511719 293.980469 159.226562 294.457031 160.957031 294.890625 C 162.6875 295.328125 164.425781 295.71875 166.175781 296.066406 C 167.921875 296.417969 169.679688 296.722656 171.441406 296.984375 C 173.207031 297.25 174.976562 297.46875 176.75 297.644531 C 178.523438 297.820312 180.300781 297.953125 182.082031 298.039062 C 183.863281 298.128906 185.648438 298.171875 187.429688 298.175781 C 189.214844 298.175781 190.996094 298.132812 192.777344 298.046875 C 194.558594 297.960938 196.335938 297.832031 198.109375 297.65625 C 199.882812 297.484375 201.652344 297.265625 203.417969 297.007812 C 205.183594 296.746094 206.9375 296.441406 208.6875 296.09375 C 210.4375 295.75 212.175781 295.359375 213.90625 294.925781 C 215.636719 294.496094 217.355469 294.019531 219.0625 293.503906 C 220.769531 292.988281 222.460938 292.429688 224.140625 291.828125 C 225.820312 291.230469 227.484375 290.589844 229.132812 289.910156 C 230.78125 289.226562 232.410156 288.503906 234.023438 287.746094 C 235.632812 286.984375 237.226562 286.183594 238.800781 285.34375 C 240.375 284.503906 241.925781 283.625 243.457031 282.710938 C 244.984375 281.792969 246.492188 280.84375 247.976562 279.851562 C 249.457031 278.863281 250.917969 277.835938 252.351562 276.777344 C 253.78125 275.714844 255.1875 274.617188 256.566406 273.488281 C 257.945312 272.359375 259.296875 271.195312 260.621094 269.996094 C 261.941406 268.800781 263.234375 267.574219 264.496094 266.3125 C 265.757812 265.050781 266.988281 263.761719 268.1875 262.441406 C 269.382812 261.121094 270.550781 259.773438 271.679688 258.394531 C 272.8125 257.015625 273.910156 255.613281 274.972656 254.179688 C 276.039062 252.75 277.066406 251.292969 278.058594 249.8125 C 279.046875 248.328125 280.003906 246.824219 280.921875 245.292969 C 281.839844 243.765625 282.71875 242.214844 283.558594 240.644531 C 284.402344 239.070312 285.203125 237.480469 285.96875 235.867188 C 286.730469 234.257812 287.453125 232.628906 288.136719 230.980469 C 288.820312 229.332031 289.464844 227.671875 290.066406 225.992188 C 290.667969 224.3125 291.226562 222.621094 291.746094 220.914062 C 292.265625 219.207031 292.742188 217.492188 293.175781 215.761719 C 293.609375 214.03125 294.003906 212.292969 294.351562 210.542969 C 294.699219 208.796875 295.007812 207.039062 295.269531 205.277344 C 295.53125 203.511719 295.75 201.742188 295.925781 199.96875 C 296.105469 198.195312 296.234375 196.417969 296.324219 194.636719 C 296.414062 192.855469 296.457031 191.074219 296.460938 189.289062 C 296.460938 187.507812 296.417969 185.722656 296.332031 183.941406 C 296.246094 182.160156 296.117188 180.382812 295.941406 178.609375 C 295.769531 176.835938 295.550781 175.066406 295.289062 173.300781 C 295.03125 171.535156 294.726562 169.78125 294.378906 168.03125 C 294.035156 166.28125 293.644531 164.542969 293.210938 162.8125 C 292.777344 161.082031 292.300781 159.367188 291.78125 157.660156 C 291.265625 155.957031 290.703125 154.261719 290.101562 152.585938 C 289.503906 150.90625 288.859375 149.246094 288.175781 147.597656 C 287.496094 145.953125 286.773438 144.324219 286.007812 142.710938 C 285.246094 141.101562 284.445312 139.507812 283.605469 137.9375 C 282.765625 136.363281 281.886719 134.8125 280.96875 133.285156 C 280.050781 131.757812 279.097656 130.25 278.109375 128.769531 C 277.117188 127.285156 276.089844 125.828125 275.03125 124.398438 C 273.96875 122.964844 272.871094 121.5625 271.742188 120.183594 C 270.609375 118.804688 269.445312 117.457031 268.25 116.132812 C 267.050781 114.8125 265.824219 113.523438 264.5625 112.261719 C 263.304688 111 262.011719 109.773438 260.691406 108.574219 C 259.371094 107.375 258.023438 106.210938 256.644531 105.082031 C 255.269531 103.949219 253.863281 102.851562 252.433594 101.789062 C 251 100.726562 249.542969 99.699219 248.0625 98.707031 C 246.582031 97.71875 245.078125 96.761719 243.546875 95.847656 C 242.019531 94.929688 240.46875 94.050781 238.898438 93.207031 C 237.328125 92.367188 235.734375 91.5625 234.125 90.800781 C 232.515625 90.035156 230.886719 89.3125 229.238281 88.628906 C 227.59375 87.945312 225.929688 87.304688 224.253906 86.699219 C 222.574219 86.097656 220.882812 85.539062 219.179688 85.019531 C 217.472656 84.5 215.757812 84.023438 214.027344 83.585938 C 212.296875 83.152344 210.558594 82.757812 208.8125 82.410156 C 207.066406 82.058594 205.308594 81.753906 203.546875 81.488281 C 201.785156 81.226562 200.015625 81.003906 198.242188 80.828125 C 196.46875 80.652344 194.691406 80.515625 192.910156 80.425781 C 191.128906 80.335938 189.347656 80.289062 187.566406 80.289062 C 185.78125 80.285156 184 80.328125 182.222656 80.410156 C 180.441406 80.496094 178.664062 80.625 176.886719 80.796875 C 175.113281 80.96875 173.34375 81.183594 171.582031 81.441406 C 169.816406 81.699219 168.0625 82 166.3125 82.34375 C 164.5625 82.691406 162.824219 83.078125 161.09375 83.507812 Z M 209.703125 278.089844 C 208.25 278.453125 206.789062 278.78125 205.316406 279.074219 C 203.84375 279.367188 202.367188 279.625 200.886719 279.84375 C 199.402344 280.0625 197.914062 280.246094 196.421875 280.394531 C 194.929688 280.539062 193.433594 280.648438 191.9375 280.722656 C 190.4375 280.796875 188.9375 280.832031 187.441406 280.832031 C 185.941406 280.832031 184.441406 280.792969 182.945312 280.71875 C 181.445312 280.644531 179.949219 280.535156 178.457031 280.386719 C 176.964844 280.242188 175.476562 280.058594 173.996094 279.835938 C 172.511719 279.617188 171.035156 279.359375 169.5625 279.066406 C 168.09375 278.773438 166.628906 278.445312 165.175781 278.078125 C 163.722656 277.714844 162.277344 277.3125 160.839844 276.878906 C 159.40625 276.441406 157.984375 275.972656 156.570312 275.464844 C 155.160156 274.960938 153.761719 274.417969 152.375 273.84375 C 150.992188 273.269531 149.621094 272.664062 148.265625 272.019531 C 146.910156 271.378906 145.570312 270.703125 144.25 269.996094 C 142.925781 269.289062 141.621094 268.550781 140.335938 267.777344 C 139.050781 267.007812 137.785156 266.203125 136.539062 265.371094 C 135.292969 264.535156 134.066406 263.671875 132.863281 262.777344 C 131.65625 261.886719 130.476562 260.960938 129.316406 260.011719 C 128.160156 259.058594 127.023438 258.078125 125.914062 257.070312 C 124.804688 256.0625 123.71875 255.027344 122.65625 253.96875 C 121.597656 252.90625 120.566406 251.820312 119.558594 250.707031 C 118.550781 249.597656 117.574219 248.460938 116.621094 247.300781 C 115.671875 246.140625 114.75 244.960938 113.859375 243.753906 C 112.964844 242.550781 112.101562 241.324219 111.269531 240.074219 C 110.4375 238.828125 109.636719 237.5625 108.867188 236.273438 C 108.097656 234.988281 107.359375 233.683594 106.652344 232.359375 C 105.945312 231.035156 105.273438 229.695312 104.632812 228.339844 C 103.992188 226.984375 103.386719 225.613281 102.8125 224.226562 C 102.242188 222.84375 101.703125 221.441406 101.199219 220.03125 C 100.695312 218.617188 100.222656 217.195312 99.789062 215.757812 C 99.355469 214.324219 98.957031 212.878906 98.59375 211.421875 C 98.230469 209.96875 97.902344 208.507812 97.613281 207.035156 C 97.320312 205.566406 97.066406 204.089844 96.847656 202.605469 C 96.628906 201.125 96.445312 199.636719 96.300781 198.144531 C 96.152344 196.652344 96.046875 195.160156 95.972656 193.660156 C 95.898438 192.164062 95.863281 190.667969 95.867188 189.167969 C 95.867188 187.667969 95.90625 186.171875 95.980469 184.675781 C 96.054688 183.175781 96.164062 181.683594 96.3125 180.191406 C 96.460938 178.699219 96.644531 177.210938 96.867188 175.730469 C 97.085938 174.246094 97.34375 172.773438 97.636719 171.300781 C 97.929688 169.832031 98.261719 168.371094 98.625 166.917969 C 98.992188 165.460938 99.390625 164.019531 99.828125 162.585938 C 100.265625 161.152344 100.734375 159.726562 101.242188 158.316406 C 101.746094 156.90625 102.285156 155.507812 102.863281 154.125 C 103.4375 152.738281 104.042969 151.371094 104.6875 150.015625 C 105.328125 148.660156 106.003906 147.324219 106.710938 146.003906 C 107.417969 144.679688 108.15625 143.378906 108.929688 142.09375 C 109.699219 140.808594 110.503906 139.542969 111.335938 138.296875 C 112.167969 137.050781 113.03125 135.824219 113.925781 134.621094 C 114.820312 133.417969 115.742188 132.238281 116.695312 131.082031 C 117.644531 129.921875 118.625 128.789062 119.632812 127.679688 C 120.640625 126.570312 121.671875 125.484375 122.734375 124.425781 C 123.792969 123.367188 124.878906 122.332031 125.992188 121.328125 C 127.101562 120.320312 128.238281 119.34375 129.398438 118.394531 C 130.558594 117.441406 131.738281 116.523438 132.941406 115.628906 C 134.148438 114.738281 135.375 113.875 136.621094 113.042969 C 137.867188 112.210938 139.132812 111.410156 140.417969 110.640625 C 141.707031 109.871094 143.007812 109.132812 144.332031 108.425781 C 145.652344 107.722656 146.992188 107.050781 148.347656 106.410156 C 149.703125 105.769531 151.074219 105.164062 152.457031 104.589844 C 153.84375 104.015625 155.242188 103.476562 156.652344 102.972656 C 158.066406 102.46875 159.488281 102 160.921875 101.566406 C 162.359375 101.132812 163.800781 100.734375 165.257812 100.371094 C 166.710938 100.007812 168.171875 99.679688 169.640625 99.386719 C 171.113281 99.097656 172.589844 98.839844 174.070312 98.621094 C 175.554688 98.402344 177.042969 98.21875 178.535156 98.074219 C 180.027344 97.925781 181.519531 97.816406 183.015625 97.746094 C 184.515625 97.671875 186.011719 97.636719 187.511719 97.636719 C 189.011719 97.636719 190.507812 97.675781 192.003906 97.75 C 193.5 97.824219 194.996094 97.933594 196.488281 98.082031 C 197.980469 98.230469 199.464844 98.414062 200.949219 98.636719 C 202.429688 98.855469 203.90625 99.113281 205.378906 99.40625 C 206.847656 99.699219 208.308594 100.027344 209.761719 100.394531 C 211.21875 100.757812 212.660156 101.160156 214.09375 101.59375 C 215.527344 102.03125 216.953125 102.5 218.363281 103.007812 C 219.773438 103.511719 221.171875 104.050781 222.554688 104.625 C 223.941406 105.199219 225.308594 105.808594 226.664062 106.449219 C 228.019531 107.089844 229.355469 107.765625 230.679688 108.472656 C 232 109.179688 233.304688 109.917969 234.589844 110.691406 C 235.875 111.460938 237.140625 112.265625 238.386719 113.097656 C 239.632812 113.929688 240.855469 114.792969 242.058594 115.6875 C 243.261719 116.582031 244.445312 117.503906 245.601562 118.453125 C 246.761719 119.40625 247.894531 120.386719 249.003906 121.390625 C 250.113281 122.398438 251.199219 123.433594 252.257812 124.492188 C 253.320312 125.554688 254.351562 126.640625 255.359375 127.75 C 256.363281 128.859375 257.34375 129.996094 258.292969 131.15625 C 259.242188 132.3125 260.164062 133.496094 261.054688 134.699219 C 261.949219 135.90625 262.8125 137.128906 263.644531 138.375 C 264.476562 139.625 265.277344 140.890625 266.046875 142.175781 C 266.816406 143.460938 267.554688 144.765625 268.261719 146.085938 C 268.96875 147.410156 269.640625 148.75 270.28125 150.101562 C 270.921875 151.457031 271.527344 152.828125 272.101562 154.214844 C 272.671875 155.597656 273.210938 156.996094 273.71875 158.410156 C 274.222656 159.820312 274.691406 161.242188 275.125 162.675781 C 275.558594 164.113281 275.960938 165.554688 276.324219 167.011719 C 276.6875 168.464844 277.015625 169.925781 277.304688 171.398438 C 277.597656 172.867188 277.855469 174.34375 278.074219 175.824219 C 278.292969 177.308594 278.476562 178.796875 278.621094 180.289062 C 278.769531 181.777344 278.878906 183.273438 278.949219 184.769531 C 279.023438 186.269531 279.058594 187.765625 279.058594 189.265625 C 279.058594 190.761719 279.023438 192.261719 278.949219 193.757812 C 278.875 195.253906 278.761719 196.75 278.617188 198.242188 C 278.46875 199.734375 278.285156 201.21875 278.0625 202.703125 C 277.84375 204.183594 277.585938 205.660156 277.292969 207.132812 C 277 208.601562 276.671875 210.0625 276.308594 211.515625 C 275.945312 212.972656 275.542969 214.414062 275.109375 215.847656 C 274.671875 217.285156 274.203125 218.707031 273.695312 220.117188 C 273.191406 221.527344 272.652344 222.925781 272.078125 224.3125 C 271.503906 225.695312 270.894531 227.066406 270.253906 228.417969 C 269.613281 229.773438 268.941406 231.113281 268.234375 232.433594 C 267.527344 233.757812 266.785156 235.058594 266.015625 236.34375 C 265.246094 237.628906 264.441406 238.894531 263.609375 240.140625 C 262.777344 241.386719 261.914062 242.613281 261.019531 243.816406 C 260.128906 245.019531 259.207031 246.203125 258.253906 247.359375 C 257.304688 248.519531 256.324219 249.652344 255.316406 250.761719 C 254.308594 251.875 253.277344 252.957031 252.21875 254.019531 C 251.15625 255.078125 250.070312 256.109375 248.960938 257.117188 C 247.851562 258.125 246.714844 259.101562 245.554688 260.050781 C 244.398438 261.003906 243.214844 261.925781 242.011719 262.816406 C 240.808594 263.710938 239.582031 264.574219 238.335938 265.40625 C 237.089844 266.238281 235.824219 267.039062 234.539062 267.808594 C 233.25 268.578125 231.949219 269.316406 230.625 270.023438 C 229.304688 270.730469 227.964844 271.402344 226.609375 272.042969 C 225.253906 272.683594 223.886719 273.292969 222.5 273.867188 C 221.117188 274.4375 219.71875 274.976562 218.304688 275.484375 C 216.894531 275.988281 215.472656 276.457031 214.039062 276.890625 C 212.601562 277.328125 211.160156 277.726562 209.703125 278.089844 Z M 209.703125 278.089844 " fill-opacity="1" fill-rule="nonzero"/><path fill="#000000" d="M 229.0625 120 C 227.742188 119.207031 226.394531 118.449219 225.03125 117.734375 C 223.664062 117.015625 222.28125 116.339844 220.875 115.703125 C 219.472656 115.066406 218.050781 114.46875 216.613281 113.914062 C 215.171875 113.355469 213.71875 112.84375 212.253906 112.371094 C 210.785156 111.898438 209.304688 111.464844 207.8125 111.078125 C 206.320312 110.691406 204.816406 110.347656 203.304688 110.042969 C 201.792969 109.742188 200.273438 109.484375 198.746094 109.269531 C 197.21875 109.054688 195.6875 108.882812 194.148438 108.757812 C 192.613281 108.628906 191.074219 108.546875 189.53125 108.507812 C 187.988281 108.46875 186.449219 108.472656 184.90625 108.523438 C 183.363281 108.574219 181.828125 108.667969 180.289062 108.804688 C 178.753906 108.941406 177.222656 109.121094 175.699219 109.347656 C 174.171875 109.574219 172.652344 109.84375 171.144531 110.152344 C 169.632812 110.464844 168.132812 110.820312 166.644531 111.21875 C 165.152344 111.617188 163.675781 112.058594 162.210938 112.542969 C 160.746094 113.023438 159.296875 113.546875 157.863281 114.113281 C 156.429688 114.679688 155.011719 115.285156 153.609375 115.933594 C 152.210938 116.582031 150.832031 117.265625 149.46875 117.992188 C 148.109375 118.71875 146.769531 119.484375 145.453125 120.285156 C 144.136719 121.089844 142.84375 121.929688 141.574219 122.804688 C 140.308594 123.683594 139.066406 124.59375 137.847656 125.542969 C 136.632812 126.492188 135.445312 127.472656 134.285156 128.488281 C 133.125 129.503906 131.992188 130.554688 130.894531 131.632812 C 129.792969 132.714844 128.726562 133.828125 127.6875 134.96875 C 126.652344 136.109375 125.648438 137.28125 124.679688 138.480469 C 123.710938 139.679688 122.777344 140.90625 121.878906 142.160156 C 120.976562 143.414062 120.117188 144.691406 119.289062 145.992188 C 118.464844 147.292969 117.675781 148.621094 116.925781 149.96875 C 116.175781 151.316406 115.464844 152.683594 114.792969 154.070312 C 114.121094 155.457031 113.492188 156.867188 112.898438 158.289062 C 112.308594 159.714844 111.757812 161.152344 111.25 162.609375 C 110.742188 164.066406 110.273438 165.535156 109.851562 167.019531 C 109.425781 168.5 109.042969 169.992188 108.707031 171.5 C 108.367188 173.003906 108.070312 174.515625 107.820312 176.039062 C 107.566406 177.558594 107.359375 179.085938 107.191406 180.621094 C 107.027344 182.152344 106.90625 183.691406 106.832031 185.230469 C 106.753906 186.769531 106.722656 188.3125 106.734375 189.855469 C 106.746094 191.394531 106.800781 192.9375 106.902344 194.476562 C 107 196.015625 107.144531 197.550781 107.332031 199.078125 C 107.519531 200.609375 107.75 202.132812 108.027344 203.652344 C 108.300781 205.167969 108.621094 206.679688 108.980469 208.175781 C 109.34375 209.675781 109.746094 211.164062 110.195312 212.640625 C 110.640625 214.117188 111.128906 215.578125 111.660156 217.027344 C 112.191406 218.472656 112.761719 219.90625 113.375 221.320312 C 113.984375 222.738281 114.640625 224.132812 115.332031 225.511719 C 116.023438 226.890625 116.753906 228.246094 117.523438 229.582031 C 118.296875 230.917969 119.101562 232.230469 119.949219 233.519531 C 120.792969 234.8125 121.675781 236.074219 122.59375 237.316406 C 123.511719 238.554688 124.464844 239.765625 125.453125 240.949219 C 126.4375 242.136719 127.460938 243.289062 128.511719 244.417969 C 129.566406 245.542969 130.652344 246.636719 131.765625 247.703125 C 132.882812 248.765625 134.03125 249.796875 135.203125 250.796875 C 136.378906 251.796875 137.582031 252.757812 138.8125 253.6875 C 140.042969 254.617188 141.300781 255.511719 142.582031 256.371094 C 143.863281 257.226562 145.167969 258.046875 146.496094 258.828125 C 147.828125 259.613281 149.175781 260.355469 150.546875 261.0625 C 151.917969 261.769531 153.308594 262.433594 154.71875 263.058594 C 156.128906 263.6875 157.554688 264.269531 158.996094 264.816406 C 160.441406 265.359375 161.898438 265.859375 163.371094 266.320312 C 164.839844 266.78125 166.324219 267.199219 167.820312 267.578125 C 169.316406 267.953125 170.820312 268.285156 172.335938 268.574219 C 173.851562 268.863281 175.375 269.109375 176.902344 269.3125 C 178.429688 269.515625 179.964844 269.671875 181.503906 269.785156 C 183.039062 269.902344 184.582031 269.972656 186.121094 269.996094 C 187.664062 270.023438 189.207031 270.007812 190.746094 269.945312 C 192.289062 269.882812 193.824219 269.777344 195.359375 269.625 C 196.894531 269.476562 198.425781 269.28125 199.949219 269.042969 C 201.472656 268.804688 202.988281 268.523438 204.496094 268.199219 C 206.003906 267.875 207.5 267.507812 208.988281 267.097656 C 210.472656 266.6875 211.945312 266.234375 213.40625 265.738281 C 214.867188 265.246094 216.3125 264.707031 217.742188 264.132812 C 219.171875 263.554688 220.585938 262.9375 221.980469 262.277344 C 223.375 261.617188 224.75 260.921875 226.101562 260.183594 C 227.457031 259.445312 228.789062 258.671875 230.101562 257.855469 C 231.410156 257.042969 232.695312 256.195312 233.957031 255.304688 C 235.21875 254.417969 236.453125 253.496094 237.664062 252.539062 C 238.871094 251.582031 240.050781 250.589844 241.203125 249.5625 C 242.355469 248.539062 243.476562 247.480469 244.566406 246.390625 C 245.660156 245.300781 246.71875 244.179688 247.746094 243.03125 C 248.773438 241.878906 249.765625 240.699219 250.726562 239.492188 C 251.683594 238.285156 252.609375 237.050781 253.496094 235.792969 C 254.386719 234.53125 255.238281 233.246094 256.054688 231.9375 C 256.867188 230.628906 257.644531 229.296875 258.382812 227.941406 C 259.125 226.589844 259.824219 225.214844 260.484375 223.824219 C 261.144531 222.429688 261.761719 221.015625 262.34375 219.589844 C 262.921875 218.160156 263.460938 216.714844 263.957031 215.253906 C 264.453125 213.792969 264.90625 212.320312 265.320312 210.835938 C 265.730469 209.347656 266.101562 207.851562 266.429688 206.34375 C 266.753906 204.835938 267.039062 203.324219 267.277344 201.800781 C 267.515625 200.277344 267.714844 198.746094 267.863281 197.210938 C 268.015625 195.675781 268.125 194.140625 268.1875 192.597656 C 268.253906 191.058594 268.273438 189.515625 268.25 187.972656 C 268.222656 186.433594 268.15625 184.890625 268.042969 183.355469 C 267.929688 181.816406 267.773438 180.28125 267.574219 178.753906 C 267.375 177.222656 267.128906 175.703125 266.84375 174.1875 C 266.554688 172.671875 266.222656 171.167969 265.851562 169.671875 C 265.214844 167.101562 264.457031 164.570312 263.570312 162.078125 C 262.6875 159.582031 261.679688 157.140625 260.554688 154.746094 C 259.425781 152.351562 258.183594 150.019531 256.828125 147.746094 C 255.46875 145.476562 254.003906 143.277344 252.429688 141.152344 C 250.855469 139.027344 249.179688 136.980469 247.402344 135.023438 C 245.625 133.0625 243.757812 131.191406 241.792969 129.417969 C 239.832031 127.640625 237.789062 125.96875 235.660156 124.394531 C 233.535156 122.820312 231.335938 121.355469 229.0625 120 Z M 241.859375 221.859375 C 241.234375 222.894531 240.582031 223.914062 239.902344 224.914062 C 239.21875 225.914062 238.511719 226.894531 237.773438 227.855469 C 237.035156 228.8125 236.269531 229.753906 235.480469 230.667969 C 234.6875 231.582031 233.871094 232.476562 233.03125 233.34375 C 232.1875 234.214844 231.320312 235.058594 230.429688 235.878906 C 229.539062 236.699219 228.625 237.492188 227.691406 238.257812 C 226.753906 239.023438 225.796875 239.765625 224.816406 240.476562 C 223.839844 241.1875 222.839844 241.875 221.824219 242.527344 C 220.804688 243.183594 219.769531 243.808594 218.714844 244.40625 C 217.664062 245 216.59375 245.566406 215.507812 246.101562 C 214.421875 246.632812 213.320312 247.136719 212.207031 247.609375 C 211.089844 248.082031 209.964844 248.519531 208.824219 248.925781 C 207.683594 249.332031 206.535156 249.707031 205.371094 250.046875 C 204.210938 250.390625 203.042969 250.695312 201.863281 250.972656 C 200.683594 251.246094 199.496094 251.484375 198.304688 251.691406 C 197.113281 251.898438 195.914062 252.070312 194.710938 252.207031 C 193.511719 252.34375 192.304688 252.445312 191.097656 252.515625 C 189.886719 252.582031 188.679688 252.617188 187.46875 252.617188 C 186.257812 252.617188 185.046875 252.578125 183.839844 252.511719 C 182.632812 252.441406 181.425781 252.335938 180.222656 252.195312 C 179.023438 252.058594 177.824219 251.882812 176.632812 251.675781 C 175.441406 251.46875 174.253906 251.226562 173.078125 250.949219 C 171.898438 250.675781 170.726562 250.367188 169.566406 250.023438 C 168.40625 249.679688 167.257812 249.304688 166.117188 248.894531 C 164.976562 248.488281 163.851562 248.046875 162.738281 247.574219 C 161.625 247.101562 160.523438 246.59375 159.4375 246.058594 C 158.351562 245.523438 157.285156 244.957031 156.230469 244.359375 C 155.179688 243.761719 154.144531 243.136719 153.128906 242.476562 C 152.109375 241.820312 151.113281 241.136719 150.136719 240.421875 C 149.160156 239.710938 148.203125 238.96875 147.269531 238.199219 C 146.332031 237.429688 145.421875 236.636719 144.53125 235.816406 C 143.640625 234.996094 142.777344 234.148438 141.933594 233.277344 C 141.09375 232.410156 140.277344 231.515625 139.488281 230.597656 C 138.699219 229.679688 137.9375 228.742188 137.199219 227.78125 C 136.464844 226.820312 135.753906 225.839844 135.074219 224.839844 C 134.394531 223.835938 133.746094 222.816406 133.125 221.777344 C 132.5 220.738281 131.910156 219.683594 131.347656 218.613281 C 130.789062 217.539062 130.257812 216.453125 129.761719 215.347656 C 129.261719 214.246094 128.792969 213.128906 128.359375 212 C 127.925781 210.871094 127.523438 209.730469 127.152344 208.578125 C 126.785156 207.425781 126.449219 206.261719 126.144531 205.089844 C 125.84375 203.917969 125.574219 202.738281 125.335938 201.550781 C 125.101562 200.367188 124.902344 199.171875 124.734375 197.972656 C 124.566406 196.773438 124.433594 195.574219 124.335938 194.367188 C 124.238281 193.160156 124.175781 191.953125 124.148438 190.742188 C 124.117188 189.53125 124.125 188.320312 124.164062 187.113281 C 124.203125 185.902344 124.28125 184.695312 124.390625 183.488281 C 124.5 182.285156 124.644531 181.082031 124.820312 179.886719 C 125 178.6875 125.210938 177.496094 125.457031 176.3125 C 125.707031 175.128906 125.984375 173.953125 126.300781 172.78125 C 126.613281 171.613281 126.960938 170.453125 127.34375 169.304688 C 127.722656 168.15625 128.136719 167.019531 128.582031 165.894531 C 129.027344 164.769531 129.503906 163.65625 130.011719 162.558594 C 130.523438 161.460938 131.0625 160.378906 131.632812 159.3125 C 132.207031 158.246094 132.808594 157.195312 133.4375 156.164062 C 134.070312 155.128906 134.730469 154.117188 135.417969 153.121094 C 136.109375 152.128906 136.828125 151.152344 137.570312 150.199219 C 138.316406 149.246094 139.089844 148.3125 139.886719 147.40625 C 140.6875 146.496094 141.511719 145.609375 142.359375 144.746094 C 143.210938 143.886719 144.082031 143.046875 144.980469 142.234375 C 145.878906 141.421875 146.796875 140.636719 147.738281 139.878906 C 148.683594 139.117188 149.644531 138.386719 150.628906 137.683594 C 151.613281 136.976562 152.617188 136.304688 153.640625 135.65625 C 154.664062 135.007812 155.703125 134.390625 156.761719 133.804688 C 157.820312 133.21875 158.894531 132.660156 159.984375 132.136719 C 161.074219 131.609375 162.179688 131.117188 163.296875 130.652344 C 164.417969 130.191406 165.546875 129.761719 166.691406 129.363281 C 167.835938 128.964844 168.988281 128.601562 170.152344 128.269531 C 171.316406 127.9375 172.488281 127.640625 173.667969 127.375 C 174.851562 127.113281 176.039062 126.882812 177.230469 126.683594 C 178.425781 126.488281 179.625 126.328125 180.828125 126.199219 C 182.03125 126.070312 183.238281 125.976562 184.449219 125.917969 C 185.65625 125.859375 186.867188 125.835938 188.078125 125.847656 C 189.285156 125.859375 190.496094 125.902344 191.703125 125.984375 C 192.910156 126.0625 194.117188 126.179688 195.316406 126.328125 C 196.519531 126.476562 197.714844 126.660156 198.902344 126.878906 C 200.09375 127.09375 201.277344 127.347656 202.453125 127.632812 C 203.628906 127.917969 204.796875 128.234375 205.957031 128.585938 C 207.113281 128.941406 208.261719 129.324219 209.398438 129.742188 C 210.53125 130.160156 211.65625 130.609375 212.765625 131.09375 C 213.875 131.574219 214.972656 132.089844 216.050781 132.632812 C 217.132812 133.179688 218.195312 133.753906 219.246094 134.359375 C 220.292969 134.964844 221.320312 135.601562 222.332031 136.265625 C 223.34375 136.929688 224.335938 137.625 225.308594 138.34375 C 226.28125 139.066406 227.230469 139.816406 228.160156 140.59375 C 229.085938 141.367188 229.992188 142.171875 230.875 143 C 231.757812 143.824219 232.617188 144.679688 233.449219 145.554688 C 234.285156 146.433594 235.09375 147.332031 235.875 148.257812 C 236.65625 149.179688 237.414062 150.125 238.140625 151.089844 C 238.871094 152.058594 239.570312 153.046875 240.242188 154.050781 C 240.914062 155.058594 241.554688 156.085938 242.167969 157.128906 C 242.78125 158.171875 243.363281 159.230469 243.917969 160.308594 C 244.46875 161.386719 244.988281 162.476562 245.480469 163.585938 C 245.96875 164.691406 246.425781 165.8125 246.851562 166.945312 C 247.277344 168.078125 247.671875 169.222656 248.03125 170.375 C 248.390625 171.53125 248.71875 172.699219 249.011719 173.871094 C 250.027344 177.910156 250.640625 182.007812 250.847656 186.167969 C 251.050781 190.324219 250.847656 194.464844 250.230469 198.582031 C 249.617188 202.699219 248.601562 206.71875 247.191406 210.636719 C 245.777344 214.554688 243.996094 218.292969 241.839844 221.859375 Z M 241.859375 221.859375 " fill-opacity="1" fill-rule="nonzero"/><path fill="#000000" d="M 371.527344 220.484375 L 335.261719 75.191406 C 334.820312 73.4375 334.265625 71.722656 333.601562 70.039062 C 332.9375 68.359375 332.167969 66.730469 331.289062 65.148438 C 330.410156 63.570312 329.433594 62.054688 328.355469 60.601562 C 327.28125 59.148438 326.113281 57.773438 324.859375 56.472656 C 323.601562 55.171875 322.269531 53.960938 320.855469 52.835938 C 319.441406 51.710938 317.957031 50.679688 316.410156 49.75 C 314.859375 48.816406 313.257812 47.992188 311.601562 47.269531 C 309.945312 46.546875 308.246094 45.933594 306.511719 45.433594 L 162.621094 4.253906 C 160.882812 3.757812 159.121094 3.378906 157.332031 3.113281 C 155.546875 2.847656 153.746094 2.703125 151.941406 2.671875 C 150.132812 2.640625 148.332031 2.730469 146.539062 2.933594 C 144.742188 3.140625 142.96875 3.460938 141.214844 3.898438 C 139.460938 4.339844 137.742188 4.886719 136.0625 5.550781 C 134.378906 6.210938 132.75 6.980469 131.167969 7.855469 C 129.585938 8.730469 128.070312 9.707031 126.617188 10.78125 C 125.160156 11.851562 123.785156 13.015625 122.484375 14.269531 L 14.84375 118.28125 C 13.550781 119.539062 12.34375 120.871094 11.222656 122.285156 C 10.101562 123.699219 9.078125 125.179688 8.152344 126.730469 C 7.222656 128.277344 6.402344 129.878906 5.683594 131.53125 C 4.964844 133.1875 4.359375 134.882812 3.863281 136.617188 C 3.363281 138.351562 2.984375 140.109375 2.714844 141.894531 C 2.449219 143.679688 2.300781 145.472656 2.265625 147.277344 C 2.234375 149.078125 2.316406 150.878906 2.519531 152.671875 C 2.722656 154.464844 3.039062 156.234375 3.472656 157.984375 L 39.722656 303.195312 C 40.164062 304.949219 40.71875 306.664062 41.382812 308.34375 C 42.046875 310.027344 42.820312 311.65625 43.699219 313.238281 C 44.578125 314.816406 45.554688 316.332031 46.632812 317.785156 C 47.710938 319.238281 48.875 320.613281 50.132812 321.914062 C 51.390625 323.214844 52.726562 324.425781 54.140625 325.550781 C 55.554688 326.675781 57.039062 327.707031 58.585938 328.636719 C 60.136719 329.570312 61.738281 330.394531 63.398438 331.117188 C 65.054688 331.839844 66.753906 332.449219 68.488281 332.953125 L 212.394531 374.148438 C 216.09375 375.210938 219.867188 375.742188 223.714844 375.746094 C 226.378906 375.746094 229.015625 375.492188 231.628906 374.984375 C 234.242188 374.476562 236.785156 373.726562 239.253906 372.730469 C 241.722656 371.734375 244.074219 370.511719 246.308594 369.0625 C 248.542969 367.613281 250.617188 365.964844 252.535156 364.113281 L 360.171875 260.105469 C 361.464844 258.847656 362.667969 257.515625 363.78125 256.105469 C 364.898438 254.691406 365.917969 253.214844 366.84375 251.671875 C 367.765625 250.125 368.585938 248.527344 369.300781 246.875 C 370.019531 245.226562 370.625 243.535156 371.121094 241.804688 C 371.617188 240.074219 371.996094 238.320312 372.265625 236.539062 C 372.53125 234.761719 372.683594 232.972656 372.71875 231.171875 C 372.75 229.371094 372.667969 227.578125 372.46875 225.789062 C 372.269531 224 371.957031 222.234375 371.527344 220.484375 Z M 348.089844 247.707031 L 240.453125 351.71875 C 239.695312 352.445312 238.898438 353.121094 238.054688 353.746094 C 237.210938 354.371094 236.328125 354.9375 235.410156 355.445312 C 234.492188 355.953125 233.546875 356.398438 232.570312 356.785156 C 231.59375 357.171875 230.597656 357.488281 229.582031 357.746094 C 228.5625 358 227.53125 358.1875 226.492188 358.308594 C 225.449219 358.429688 224.402344 358.480469 223.355469 358.464844 C 222.304688 358.449219 221.261719 358.363281 220.222656 358.210938 C 219.1875 358.058594 218.160156 357.839844 217.152344 357.550781 L 73.265625 316.355469 C 72.253906 316.0625 71.265625 315.703125 70.300781 315.28125 C 69.335938 314.859375 68.40625 314.375 67.503906 313.832031 C 66.601562 313.289062 65.742188 312.6875 64.917969 312.03125 C 64.097656 311.371094 63.320312 310.664062 62.59375 309.90625 C 61.863281 309.148438 61.183594 308.34375 60.558594 307.5 C 59.9375 306.652344 59.367188 305.765625 58.859375 304.847656 C 58.351562 303.925781 57.90625 302.972656 57.519531 301.996094 C 57.136719 301.015625 56.816406 300.015625 56.5625 298.992188 L 20.3125 153.855469 C 20.058594 152.835938 19.875 151.804688 19.757812 150.761719 C 19.640625 149.71875 19.589844 148.675781 19.609375 147.625 C 19.625 146.574219 19.714844 145.53125 19.867188 144.496094 C 20.023438 143.457031 20.246094 142.433594 20.535156 141.425781 C 20.824219 140.417969 21.175781 139.429688 21.59375 138.46875 C 22.011719 137.507812 22.492188 136.574219 23.03125 135.675781 C 23.570312 134.773438 24.167969 133.914062 24.820312 133.09375 C 25.472656 132.269531 26.171875 131.492188 26.925781 130.765625 L 134.566406 26.753906 C 135.675781 25.683594 136.878906 24.726562 138.175781 23.886719 C 139.46875 23.046875 140.832031 22.339844 142.261719 21.761719 C 143.691406 21.1875 145.167969 20.75 146.679688 20.457031 C 148.195312 20.164062 149.722656 20.015625 151.265625 20.015625 C 153.507812 20.019531 155.707031 20.328125 157.863281 20.9375 L 301.734375 62.117188 C 302.746094 62.410156 303.734375 62.769531 304.699219 63.191406 C 305.664062 63.613281 306.59375 64.097656 307.496094 64.640625 C 308.398438 65.183594 309.257812 65.785156 310.082031 66.441406 C 310.902344 67.097656 311.679688 67.808594 312.40625 68.566406 C 313.136719 69.324219 313.816406 70.125 314.4375 70.972656 C 315.0625 71.820312 315.628906 72.703125 316.140625 73.625 C 316.648438 74.546875 317.09375 75.496094 317.480469 76.476562 C 317.863281 77.457031 318.183594 78.457031 318.4375 79.480469 L 354.703125 224.6875 C 354.953125 225.703125 355.136719 226.730469 355.253906 227.769531 C 355.367188 228.808594 355.414062 229.851562 355.394531 230.898438 C 355.375 231.945312 355.285156 232.984375 355.128906 234.019531 C 354.972656 235.054688 354.75 236.074219 354.460938 237.078125 C 354.175781 238.085938 353.820312 239.066406 353.402344 240.027344 C 352.988281 240.984375 352.511719 241.914062 351.972656 242.808594 C 351.433594 243.707031 350.839844 244.566406 350.191406 245.386719 C 349.542969 246.207031 348.839844 246.980469 348.089844 247.707031 Z M 348.089844 247.707031 " fill-opacity="1" fill-rule="nonzero"/></svg>