<svg xmlns="http://www.w3.org/2000/svg" xmlns:xlink="http://www.w3.org/1999/xlink" width="500" zoomAndPan="magnify" viewBox="0 0 375 374.999991" height="500" preserveAspectRatio="xMidYMid meet" version="1.0"><path fill="#000000" d="M 225 55.1875 L 225 12.5 C 225 5.601562 219.398438 0 212.5 0 L 162.5 0 C 155.601562 0 150 5.601562 150 12.5 L 150 55.1875 C 139.601562 58.125 129.710938 62.261719 120.476562 67.4375 C 120.476562 67.4375 90.273438 37.238281 90.273438 37.238281 C 85.386719 32.363281 77.476562 32.363281 72.601562 37.238281 L 37.238281 72.601562 C 32.363281 77.476562 32.363281 85.386719 37.238281 90.273438 L 67.4375 120.476562 C 62.261719 129.710938 58.136719 139.601562 55.1875 150 C 55.1875 150 12.5 150 12.5 150 C 5.601562 150 0 155.601562 0 162.5 L 0 212.5 C 0 219.398438 5.601562 225 12.5 225 L 55.1875 225 C 58.125 235.398438 62.261719 245.289062 67.4375 254.523438 C 67.4375 254.523438 37.238281 284.726562 37.238281 284.726562 C 32.363281 289.613281 32.363281 297.523438 37.238281 302.398438 L 72.601562 337.761719 C 77.476562 342.636719 85.386719 342.636719 90.273438 337.761719 L 120.476562 307.5625 C 129.710938 312.738281 139.601562 316.863281 150 319.8125 C 150 319.8125 150 362.5 150 362.5 C 150 369.398438 155.601562 375 162.5 375 L 212.5 375 C 219.398438 375 225 369.398438 225 362.5 L 225 319.8125 C 235.398438 316.875 245.289062 312.738281 254.523438 307.5625 C 254.523438 307.5625 284.726562 337.761719 284.726562 337.761719 C 289.613281 342.636719 297.523438 342.636719 302.398438 337.761719 L 337.761719 302.398438 C 342.636719 297.523438 342.636719 289.613281 337.761719 284.726562 L 307.5625 254.523438 C 312.738281 245.289062 316.863281 235.398438 319.8125 225 C 319.8125 225 362.5 225 362.5 225 C 369.398438 225 375 219.398438 375 212.5 L 375 162.5 C 375 155.601562 369.398438 150 362.5 150 L 319.8125 150 C 316.875 139.601562 312.738281 129.710938 307.5625 120.476562 C 307.5625 120.476562 337.761719 90.273438 337.761719 90.273438 C 342.636719 85.386719 342.636719 77.476562 337.761719 72.601562 L 302.398438 37.238281 C 297.523438 32.363281 289.613281 32.363281 284.726562 37.238281 L 254.523438 67.4375 C 245.289062 62.261719 235.398438 58.136719 225 55.1875 Z M 200 65 C 200 70.949219 204.1875 76.074219 210.011719 77.25 C 224.363281 80.175781 237.710938 85.824219 249.511719 93.648438 C 254.476562 96.925781 261.050781 96.261719 265.261719 92.0625 L 293.5625 63.761719 C 293.5625 63.75 311.25 81.4375 311.25 81.4375 C 311.238281 81.4375 282.9375 109.738281 282.9375 109.738281 C 278.738281 113.949219 278.074219 120.523438 281.351562 125.488281 C 289.175781 137.289062 294.824219 150.636719 297.75 164.988281 C 298.925781 170.8125 304.050781 175 310 175 L 350 175 C 350 175 350 200 350 200 C 350 200 310 200 310 200 C 304.050781 200 298.925781 204.1875 297.75 210.011719 C 294.824219 224.363281 289.175781 237.710938 281.351562 249.511719 C 278.074219 254.476562 278.738281 261.050781 282.9375 265.261719 L 311.238281 293.5625 C 311.25 293.5625 293.5625 311.25 293.5625 311.25 C 293.5625 311.238281 265.261719 282.9375 265.261719 282.9375 C 261.050781 278.738281 254.476562 278.074219 249.511719 281.351562 C 237.710938 289.175781 224.363281 294.824219 210.011719 297.75 C 204.1875 298.925781 200 304.050781 200 310 L 200 350 C 200 350 175 350 175 350 C 175 350 175 310 175 310 C 175 304.050781 170.8125 298.925781 164.988281 297.75 C 150.636719 294.824219 137.289062 289.175781 125.488281 281.351562 C 120.523438 278.074219 113.949219 278.738281 109.738281 282.9375 L 81.4375 311.238281 C 81.4375 311.25 63.75 293.5625 63.75 293.5625 C 63.761719 293.5625 92.0625 265.261719 92.0625 265.261719 C 96.261719 261.050781 96.925781 254.476562 93.648438 249.511719 C 85.824219 237.710938 80.175781 224.363281 77.25 210.011719 C 76.074219 204.1875 70.949219 200 65 200 L 25 200 C 25 200 25 175 25 175 C 25 175 65 175 65 175 C 70.949219 175 76.074219 170.8125 77.25 164.988281 C 80.175781 150.636719 85.824219 137.289062 93.648438 125.488281 C 96.925781 120.523438 96.261719 113.949219 92.0625 109.738281 L 63.761719 81.4375 C 63.75 81.4375 81.4375 63.75 81.4375 63.75 C 81.4375 63.761719 109.738281 92.0625 109.738281 92.0625 C 113.949219 96.261719 120.523438 96.925781 125.488281 93.648438 C 137.289062 85.824219 150.636719 80.175781 164.988281 77.25 C 170.8125 76.074219 175 70.949219 175 65 L 175 25 C 175 25 200 25 200 25 C 200 25 200 65 200 65 Z M 187.5 87.5 C 132.3125 87.5 87.5 132.3125 87.5 187.5 C 87.5 242.6875 132.3125 287.5 187.5 287.5 C 242.6875 287.5 287.5 242.6875 287.5 187.5 C 287.5 132.3125 242.6875 87.5 187.5 87.5 Z M 187.5 112.5 C 228.886719 112.5 262.5 146.113281 262.5 187.5 C 262.5 228.886719 228.886719 262.5 187.5 262.5 C 146.113281 262.5 112.5 228.886719 112.5 187.5 C 112.5 146.113281 146.113281 112.5 187.5 112.5 Z M 187.5 112.5 " fill-opacity="1" fill-rule="evenodd"/></svg>