<?xml version="1.0" encoding="UTF-8" standalone="no"?>
<!-- Created with Inkscape (http://www.inkscape.org/) -->

<svg
   width="74.20388mm"
   height="93.272934mm"
   viewBox="0 0 74.20388 93.272934"
   version="1.1"
   id="svg1"
   xml:space="preserve"
   inkscape:version="1.3.2 (091e20e, 2023-11-25, custom)"
   sodipodi:docname="Logo.svg"
   xmlns:inkscape="http://www.inkscape.org/namespaces/inkscape"
   xmlns:sodipodi="http://sodipodi.sourceforge.net/DTD/sodipodi-0.dtd"
   xmlns="http://www.w3.org/2000/svg"
   xmlns:svg="http://www.w3.org/2000/svg"><sodipodi:namedview
   id="namedview1"
   pagecolor="#ffffff"
   bordercolor="#000000"
   borderopacity="0.25"
   inkscape:showpageshadow="2"
   inkscape:pageopacity="0.0"
   inkscape:pagecheckerboard="0"
   inkscape:deskcolor="#d1d1d1"
   inkscape:document-units="mm"
   inkscape:zoom="1.4485269"
   inkscape:cx="260.60958"
   inkscape:cy="166.03074"
   inkscape:window-width="1920"
   inkscape:window-height="1009"
   inkscape:window-x="1912"
   inkscape:window-y="-8"
   inkscape:window-maximized="1"
   inkscape:current-layer="svg1"
   showguides="false"
   showgrid="false" /><defs
   id="defs1" />
<g
   id="g63"
   transform="matrix(1.0000024,0,0,1,-51.577094,-24.929744)"
   inkscape:label="engrane"><path
     id="path62"
     style="fill:#5f5f5f;fill-opacity:1;stroke:none"
     d="m 66.650712,54.421484 c -0.0156,5.5e-4 -0.03081,0.0027 -0.04547,0.0067 -0.249361,0.06801 -1.052864,0.864965 -0.954464,1.126547 0.100886,0.268187 0.371159,0.516928 0.534334,0.750341 0.885992,1.267371 2.126511,2.113776 3.230811,3.187403 0.386338,0.375605 1.097661,1.219479 1.625224,1.312581 -0.02034,0.325443 0.866226,0.950744 1.124996,1.173572 1.127734,0.971103 2.46966,1.963826 3.437516,3.076298 l 1.937349,-0.937411 c -0.361319,-0.491287 -0.923211,-0.848769 -1.374593,-1.25522 -0.710326,-0.639622 -1.395285,-1.299535 -2.123384,-1.920296 -1.641189,-1.399241 -3.17806,-2.929356 -4.814177,-4.338237 -0.634102,-0.546035 -1.258372,-1.122157 -1.866552,-1.69292 -0.146601,-0.137579 -0.477515,-0.497619 -0.711585,-0.489376 z m 45.047898,1.564246 c -0.0112,7.03e-4 -0.0221,0.0027 -0.0326,0.0052 -0.28731,0.06799 -0.59909,0.493623 -0.81235,0.683679 -0.67895,0.605077 -1.35589,1.333274 -2.12494,1.817977 l 3.75016,4.124813 4.3124,-1.500167 c -0.15136,-0.507374 -0.5942,-0.852722 -0.92397,-1.249536 -0.86654,-1.042746 -1.81612,-2.069353 -2.88872,-2.901115 -0.25154,-0.195063 -0.93315,-1.002627 -1.28002,-0.980819 z m 6.57944,5.228105 c -0.22089,0.0043 -0.44769,0.02842 -0.61185,0.02842 -1.46622,0 -2.86512,0.842769 -4.24987,1.250053 v 0.06253 l 3.31246,-0.307475 2.12494,-0.942578 c -0.13979,-0.07961 -0.35479,-0.09523 -0.57568,-0.09095 z m 1.01338,0.09095 -2.31252,1.062468 0.925,1.687752 1.8247,3.124874 2.37505,-0.937411 -0.83819,-1.701705 -0.41186,-0.485758 c 0.0753,-0.350029 -0.23666,-0.680727 -0.43202,-0.961699 -0.39941,-0.574449 -0.74189,-1.203637 -1.13016,-1.788521 z m -42.375195,3.249931 c -3.47792,1.82662 -6.636385,4.579735 -8.59379,8.005196 -0.645588,1.129779 -1.223111,2.282609 -1.680518,3.494877 -0.217096,0.57537 -0.293957,1.633673 -0.725537,2.062407 l -0.305925,1.630391 -0.131774,0.557072 c 0.141454,1.122187 -0.156555,2.303598 -0.125057,3.437516 0.0541,1.947317 0.341695,3.883858 0.855761,5.750037 2.320654,8.424513 10.896049,15.000118 19.581751,15.000118 v -0.0625 c -1.909505,-0.39313 -3.558938,-1.469 -5.249809,-2.35748 -1.730463,-0.90931 -3.249138,-2.204234 -4.625041,-3.580141 -7.095333,-7.09533 -8.731508,-18.163471 -4.220414,-27.067598 1.248473,-2.464274 2.996927,-5.174503 5.282882,-6.807337 z m 45.062365,1.937866 c -1.88575,0.451625 -3.6279,1.966038 -4.68757,3.562573 1.03579,-0.330759 2.10118,-0.723222 3.08715,-1.187524 0.25115,-0.118271 0.6701,-0.132485 0.86817,-0.333313 0.34383,-0.348603 0.70561,-1.554149 0.73225,-2.041736 z m -0.89607,2.320789 c -0.3504,0.01758 -0.99033,0.364402 -1.22886,0.47594 -0.83863,0.392137 -1.96218,0.936109 -2.87476,1.07797 0.0708,0.674242 0.48891,1.360288 0.71158,1.999878 0.57552,1.653171 1.22577,3.739243 1.22577,5.500439 1.52311,-0.166392 2.8805,-1.317543 4.37492,-1.625223 -0.01,-0.5901 -0.21561,-1.116714 -0.30541,-1.687236 -0.21464,-1.363648 -0.58759,-2.752909 -1.0697,-4.062801 -0.13035,-0.354149 -0.30791,-1.527869 -0.7028,-1.665015 -0.0362,-0.01258 -0.0807,-0.01646 -0.13074,-0.01395 z m 2.0836,7.616589 -0.56224,0.187586 c -0.19116,0.249395 -0.52937,0.289601 -0.81287,0.407727 -0.75556,0.314814 -1.81117,0.950223 -2.62465,0.967382 v 0.06201 l 2.43758,0.663526 1.31206,0.353983 2.31252,-1.079521 v -0.125057 c -0.71055,-0.392992 -1.22428,-1.356637 -2.0624,-1.437638 z m 2.2505,1.812293 -1.81281,0.718819 -0.5798,0.348816 -0.045,1.807641 v 4.625041 c 0.63876,-0.131615 1.24849,-0.448491 1.87482,-0.63407 0.19229,-0.05698 0.65068,-0.15289 0.76739,-0.324528 0.13549,-0.199249 -0.0647,-0.660241 0.002,-0.911572 0.375,-1.416273 -0.05,-3.021071 0.0434,-4.442623 -0.27834,-0.214428 -0.23271,-0.84222 -0.25012,-1.187524 z m -2.24999,7.625374 c -0.21774,0.217746 -0.71942,0.253774 -1.02422,0.341581 -0.77339,0.222805 -1.5502,0.464185 -2.30219,0.745174 -0.21554,0.08054 -0.52737,0.06933 -0.71727,0.208256 -0.32759,0.239685 -0.26666,1.090922 -0.3576,1.454692 -0.31645,1.265783 -0.52052,2.567243 -0.92862,3.807519 -0.13482,0.409721 -0.56657,1.106947 -0.35761,1.504818 l -0.18758,-0.06201 -0.25012,0.749825 3.93775,-0.500227 0.49971,-1.312582 0.45837,-1.562178 0.22944,-0.500228 c -0.11241,-0.557366 0.29656,-1.398921 0.46147,-1.93735 0.28579,-0.933157 0.48186,-1.976475 0.66353,-2.937288 z m -2.07842,8.457882 -0.85938,0.104386 -3.06235,0.437699 1.85053,1.951302 0.77463,0.789616 0.87489,-0.214974 2.31252,-0.588594 -1.34566,-1.812293 z m 1.76578,2.729549 -3.06235,0.749825 c -0.31944,0.919523 -0.99516,1.849875 -1.49861,2.687687 -0.18859,0.31384 -0.60811,0.82938 -0.50126,1.18753 l -0.18759,-0.0625 -0.99994,1.87482 c 0.76282,-0.28525 1.64085,-0.36796 2.43706,-0.54674 0.31222,-0.0701 0.77882,-0.0442 1.04387,-0.24649 0.39955,-0.30501 0.67495,-1.20006 0.8971,-1.64435 0.62302,-1.246008 1.58293,-2.625031 1.87172,-3.999752 z m -10.50013,5.624982 c -0.43889,0.69176 -1.07075,1.27416 -1.60766,1.88877 -1.0485,1.20026 -2.2207,2.41325 -3.5171,3.36104 v 0.0625 c 2.12407,-0.50868 3.74679,-1.64024 5.31079,-3.1197 0.56614,-0.53554 1.27015,-1.0948 1.6893,-1.75545 z m -2.18747,4.43745 -3.31246,1.18753 0.6687,2.5001 0.33124,1.24954 1.87534,-1.05007 0.66663,-0.46353 -0.0992,-1.11105 z" /><path
     style="fill:#1c425f;stroke:none"
     d="m 66.478671,57.179911 -1.307291,1.111114 -2.975694,2.8559 -1.404515,1.57465 -0.75,-0.13715 -1.8125,-0.342014 c -0.132625,0.508758 -0.633886,1.004955 -0.925346,1.442707 -0.666536,1.001095 -1.267298,2.046753 -1.80382,3.119793 -0.221887,0.443775 -0.773864,1.190048 -0.800348,1.6875 -0.0396,0.743786 1.53702,1.138595 1.661459,1.875 0.104685,0.61951 -0.558456,1.663807 -0.755209,2.25 -0.376023,1.1203 -0.637076,2.338901 -0.862846,3.5 -0.115151,0.592201 -0.08792,1.469528 -0.385417,1.998264 -0.250761,0.445671 -1.593597,0.566498 -2.065973,0.723957 -0.151333,0.05045 -0.403931,0.08096 -0.491319,0.234375 -0.134004,0.235249 -0.0393,0.877083 -0.07639,1.168404 -0.09531,0.748607 -0.01548,1.497547 -0.05903,2.25 -0.03217,0.555923 -0.174426,1.203422 -0.0087,1.75 0.08983,0.296226 0.02757,1.178337 0.260417,1.3125 -0.270961,0.741253 0.244424,0.858566 0.8125,1.02951 0.815391,0.245377 1.781277,0.272141 1.930556,1.22049 0.252247,1.602508 0.557311,3.193557 1.083334,4.75 0.169641,0.501953 0.352829,1.009445 0.553819,1.5 0.0852,0.207946 0.293276,0.518173 0.262152,0.75 -0.02805,0.208969 -0.257944,0.352279 -0.387152,0.5 -0.345899,0.395446 -0.700752,0.783584 -1.045139,1.182289 -0.148775,0.172249 -0.485747,0.350128 -0.439236,0.616325 0.09173,0.524979 0.538084,1.134453 0.789931,1.600693 0.569423,1.054169 1.083278,2.151282 1.72743,3.163192 0.298544,0.46899 0.778872,0.91295 0.961805,1.4375 0.628884,-0.0344 1.337399,-0.2833 1.9375,-0.47916 0.23741,-0.0775 0.690358,-0.27819 0.9375,-0.2014 0.472248,0.14675 0.91811,1.07556 1.251736,1.43056 0.994661,1.05836 1.992659,2.05759 3.057293,3.03646 0.384268,0.35331 1.179623,0.73184 1.394096,1.21354 0.08862,0.19904 -0.05891,0.43552 -0.11111,0.625 -0.142247,0.51639 -0.243916,1.04446 -0.385418,1.5625 -0.0834,0.30534 -0.237088,0.72878 0.04514,0.9566 1.312803,1.05969 2.836092,1.89907 4.310764,2.69444 0.392508,0.2117 0.782696,0.41179 1.1875,0.6007 0.123986,0.0579 0.294609,0.22978 0.439236,0.1875 0.212208,-0.062 0.409512,-0.35049 0.560764,-0.50174 0.393532,-0.39353 0.809876,-0.77391 1.182293,-1.1875 0.181637,-0.20171 0.373898,-0.58617 0.692707,-0.50868 0.582627,0.14161 1.180081,0.45399 1.75,0.65452 1.133454,0.3988 2.330174,0.69045 3.5,0.95312 0.599671,0.13465 1.755215,0.0834 2.248265,0.43229 0.219307,0.15521 0.296974,0.59255 0.364582,0.84375 0.13837,0.51412 0.330856,1.01113 0.46875,1.52431 0.06539,0.24335 0.09471,0.63766 0.270836,0.82985 0.207534,0.22648 1.268783,0.12927 1.585067,0.14758 1.359173,0.0786 2.766857,0.13866 4.125,0.003 0.337376,-0.0336 0.929421,0.10816 1.21875,-0.11284 0.185913,-0.14203 0.214493,-0.55654 0.272568,-0.76737 0.160248,-0.58175 0.280377,-1.77717 0.696182,-2.1875 v -0.375 c 1.733124,0 3.814076,-0.59922 5.4375,-1.16666 0.54583,-0.19079 1.081532,-0.41487 1.625,-0.61112 0.179875,-0.0649 0.431301,-0.25443 0.625,-0.23784 0.252941,0.0217 0.500622,0.39476 0.682293,0.55208 0.585137,0.50672 1.132037,1.06175 1.694437,1.59375 0.19028,0.17999 0.42123,0.5317 0.68577,0.59722 0.37844,0.0937 1.16854,-0.58164 1.5,-0.76042 1.39595,-0.75291 2.7812,-1.83217 4.25,-2.40451 -0.0425,-0.84186 -0.42026,-1.83618 -0.65451,-2.64931 -0.0911,-0.31634 -0.40167,-0.97322 -0.32292,-1.28819 0.13012,-0.52051 1.12986,-1.03635 1.51389,-1.3941 1.03195,-0.96131 2.01187,-1.93621 2.9618,-2.9809 0.35123,-0.38627 0.67996,-1.07652 1.13195,-1.34028 0.27602,-0.16106 0.6626,0.0889 0.93229,0.14757 0.90578,0.19709 2.01598,0.71222 2.9375,0.71008 0.35455,-8.4e-4 0.56292,-0.6331 0.72916,-0.89237 0.47662,-0.74332 0.89186,-1.52564 1.33334,-2.28819 0.18953,-0.327379 0.58144,-0.773569 0.5625,-1.149309 0.25894,-0.131958 0.86449,-1.073967 0.78993,-1.375 -0.0704,-0.284073 -0.45771,-0.531113 -0.64062,-0.75 -0.46117,-0.551865 -0.99836,-1.050476 -1.50348,-1.5625 -0.21739,-0.220368 -0.41577,-0.511315 -0.70833,-0.625 l 1.02951,-2.875 0.28299,-1.375 0.31597,-1 0.36806,-1.6875 0.15972,-0.743058 1.15625,-0.4375 2.75,-0.881942 c -0.12444,-1.558941 0,-3.183873 0,-4.75 0,-0.400998 0.18311,-1.400154 -0.0451,-1.730904 -0.15867,-0.229919 -0.76205,-0.283211 -1.01736,-0.355904 -0.65093,-0.185333 -1.29225,-0.400547 -1.9375,-0.600692 -0.27159,-0.08424 -0.63696,-0.105999 -0.86979,-0.28125 -0.42038,-0.31641 -0.27892,-1.481633 -0.40972,-1.96875 -0.32281,-1.202198 -0.57331,-2.44463 -0.97223,-3.625 -0.21845,-0.646363 -0.68758,-1.38488 -0.76563,-2.060765 -0.0303,-0.262531 0.53244,-0.636882 0.70487,-0.814235 0.47267,-0.486184 0.89719,-1.017727 1.375,-1.5 0.20441,-0.206322 0.59924,-0.471928 0.69965,-0.75 0.10259,-0.284092 -0.50095,-1.016541 -0.66319,-1.26389 -0.7076,-1.078781 -1.16061,-2.61824 -2.0625,-3.541668 -0.22433,-0.229683 -0.92384,-0.06251 -1.22396,-0.02083 -0.65956,0.09161 -1.33762,0.07663 -2,0.144097 -0.37082,0.03777 -0.6879,0.196472 -1.0625,0.05556 -0.57332,-0.215672 -0.99981,-1.048946 -1.38194,-1.498264 -0.78247,-0.920037 -1.63598,-1.767926 -2.49306,-2.625 h -0.0625 c -1.82952,1.829525 -3.8589,3.446277 -5.74132,5.225692 -0.51991,0.491463 -1.93039,1.272637 -1.94618,2.024308 0.51725,0.199127 1.03483,0.846 1.41667,1.25 1.06538,1.127201 2.15388,2.359073 2.95833,3.6875 0.26539,0.438244 1.10063,1.330654 0.875,1.875 0.24263,0.02505 0.25313,0.359874 0.35069,0.5625 0.28398,0.589828 0.74127,1.407241 0.77431,2.0625 l 0.125,-0.0625 c 0.0108,0.644088 0.36491,1.374046 0.53299,2 0.24934,0.928615 0.44626,1.985843 0.52777,2.9375 0.49012,5.722839 -0.92973,11.166504 -4.38194,15.8125 -1.03051,1.386863 -2.14618,2.562606 -3.49132,3.649307 -0.33477,0.270447 -0.953048,0.919917 -1.375,0.975697 -0.723529,0.92 -2.303592,1.39448 -3.3125,1.94097 -0.370975,0.20095 -1.012809,0.60977 -1.4375,0.55903 -0.342655,0.34723 -1.100471,0.44296 -1.5625,0.57987 -1.372459,0.40665 -2.713718,0.6468 -4.125,0.80034 -5.593944,0.60861 -11.447784,-0.93184 -15.8125,-4.633686 -3.051714,-2.588249 -5.520332,-5.989372 -6.784721,-9.809028 -3.038254,-9.178418 0.822039,-20.003544 9.284721,-24.875 C 74.6991,64.337881 73.748505,63.619352 72.902359,62.841368 71.5723,61.618452 70.247021,60.375971 68.858957,59.219843 68.134888,58.616762 67.373665,57.503275 66.478748,57.179911"
     id="path27" /></g><g
   id="g64"
   inkscape:label="tuerca"><path
     id="path9"
     style="fill:#5f5f5f;fill-opacity:1;stroke:none;stroke-width:1"
     d="m 42.276835,0 c -3.614234,0.76344016 -3.58303,0.75861854 -7.812462,1.625224 3.335143,2.0108517 11.556393,6.8131738 12.312456,7.249687 L 54.901932,7.187675 C 51.659436,5.3156189 45.249847,1.7164693 42.276835,0 Z m 12.812687,7.312732 c -2.698319,0.5906801 -5.412681,1.1132098 -8.104436,1.732711 0,4.816353 -0.0832,9.598739 -0.0832,14.392403 l 8.292231,-2.050123 c 0,-4.085201 -0.104595,-9.158569 -0.104595,-14.074991 z"
     sodipodi:nodetypes="cccccccccc" /><path
     style="fill:#1c425f;stroke:none;stroke-width:1"
     d="m 21.46433,23.562667 c 0.397169,0.06502 0.72714,0.374214 1.076392,0.557289 0.712354,0.37342 1.401462,0.787994 2.111115,1.168403 2.194331,1.176262 4.407108,2.363793 6.562516,3.611115 0.887476,0.513573 1.79229,0.991897 2.687507,1.491318 0.258637,0.144287 0.688081,0.503387 1.000002,0.460067 0.679869,-0.09442 1.610238,-0.938888 2.187505,-1.309028 1.547719,-0.992386 3.112897,-1.968987 4.687511,-2.916664 1.098033,-0.660843 2.162215,-1.378434 3.251744,-2.050347 0.3816,-0.235336 1.182223,-0.536834 1.373268,-0.949653 0.351094,0 0.25,-0.48185 0.25,-0.75 v -2.5625 -8.3125 -2.1875 c 0,-0.225205 0.08358,-0.662224 -0.04514,-0.855904 C 46.357977,8.582457 45.488644,8.261595 45.089385,8.047042 44.093343,7.511786 43.122405,6.916587 42.151878,6.336974 41.684573,6.057891 41.016367,5.840789 40.651875,5.437667 40.208286,5.387087 39.603765,4.874106 39.209164,4.640792 38.039034,3.948935 36.855064,3.262275 35.65707,2.621695 35.226806,2.391631 34.583127,1.754782 34.089359,1.753638 c -0.498418,-0.0012 -1.144034,0.560082 -1.562504,0.809029 -1.13328,0.674186 -2.279939,1.357345 -3.437508,1.984375 -1.942204,1.052047 -3.83814,2.197426 -5.750014,3.303817 -0.506207,0.292939 -1.731617,0.710465 -2.01563,1.230904 -0.111305,0.203964 0.01563,0.795235 0.01563,1.043404 v 2.8125 c 0,3.541374 0.125001,7.075988 0.125001,10.625"
     id="path3" /><path
     style="fill:none;fill-opacity:1;stroke:#ffffff;stroke-width:0.641812;stroke-dasharray:none;stroke-opacity:1"
     d="m 33.794742,4.7480191 c 1.420394,-0.1972742 3.178631,0.2389574 4.498586,0.7430992 6.373488,2.4342673 9.293473,9.9540547 6.251367,16.0382517 -0.518475,1.036948 -1.169892,1.996293 -1.992707,2.819106 -0.897473,0.897466 -1.860824,1.663506 -2.999056,2.232622 -1.120912,0.560455 -2.339513,1.044278 -3.598869,1.181293 C 32.52431,28.13553 29.095857,27.301449 26.477045,24.943285 21.611674,20.562162 21.362346,12.511479 26.177139,7.9753358 28.383394,5.8967663 30.885819,5.1520269 33.794742,4.7480191"
     id="path5" /><path
     style="fill:#ffffff;fill-opacity:1;stroke:none;stroke-width:1"
     d="m 33.02678,10.764052 c 2.124335,-0.295036 4.468174,0.685692 5.545154,2.616326 1.464469,2.625274 0.75078,6.192504 -1.982645,7.68576 -0.619546,0.338455 -1.237117,0.572868 -1.937505,0.670143 -0.675946,0.09388 -1.465239,0.03903 -2.125005,-0.119797 -4.69152,-1.129402 -5.499616,-7.479736 -1.625004,-10.053817 0.652068,-0.433197 1.35674,-0.69191 2.125005,-0.798615"
     id="path13" /><path
     style="fill:#1c425f;stroke:none;stroke-width:1"
     d="m 29.339272,18.000167 0.1875,-0.0625 c -0.116813,0.463325 0.298295,1.079773 0.571184,1.43576 0.791361,1.032326 2.030141,1.93924 3.366326,1.93924 v -0.0625 c -0.88832,-0.09331 -1.72812,-0.733231 -2.331602,-1.350693 -2.697265,-2.759743 -1.533673,-7.890297 2.456602,-8.711807 -0.474248,-0.270119 -1.719257,0.479499 -2.125005,0.75 -1.311927,0.874618 -2.167746,2.24089 -2.31077,3.814239 -0.07094,0.780358 0.172917,1.483643 0.185765,2.248261"
     id="path14" /><path
     style="fill:#1c425f;stroke:none;stroke-width:1"
     d="m 30.651775,14.625167 -0.187501,1.1875 0.187501,2.1875 h 0.1875 c 0.08361,1.658332 2.308779,3.305908 3.87501,3.3125 v -0.0625 c -3.761667,-1.027413 -4.983208,-5.8779 -2.274313,-8.586808 0.662962,-0.662963 1.552353,-1.369522 2.524313,-1.475692 -0.337952,-0.194725 -0.98599,0.156891 -1.312503,0.307296 -1.09888,0.506188 -1.820209,1.185868 -2.531256,2.154511 -0.2193,0.298744 -0.171815,0.748093 -0.468751,0.975693"
     id="path15" /></g><g
   id="g65"
   inkscape:label="llave"><path
     style="fill:#1c425f;stroke:none;stroke-width:1"
     d="m 20.464308,9.500167 c -0.277275,0.287742 -0.939657,0.513374 -1.312503,0.725692 -1.48926,0.848053 -3.04424,1.63411 -3.748273,3.274308 -0.773199,1.801338 -0.376737,4.257644 -0.376737,6.1875 v 4.4375 c 0,2.49765 0.0391,4.575699 1.961811,6.413192 0.711483,0.679947 1.735815,0.89515 2.6007,1.305558 0.831847,0.394729 1.712124,0.687103 2.562506,1.043403 0.351026,0.147072 0.735186,0.420174 1.125003,0.362847 0.144204,0.276798 0.608346,0.414901 0.861113,0.602432 0.519723,0.385593 0.983427,0.875973 1.369796,1.397568 1.239787,1.673702 1.081599,3.588962 1.081599,5.5625 h -0.0625 v -0.1875 h -0.0625 v 24.6875 h 0.0625 v -0.125 h 0.0625 v 6.3125 c 0.199566,0.199562 0.19825,0.656715 0.269098,0.9375 0.107814,0.427292 0.280227,0.91809 0.477433,1.3125 0.775526,1.551049 1.812832,2.791989 3.253479,3.769099 4.876064,3.30713 12.216201,0.67341 13.536489,-5.206599 0.23208,-1.033577 0.151043,-2.12497 0.151043,-3.1875 v -4.9375 -17.8125 -5.6875 c 0,-1.042195 -0.110317,-2.161522 0.08681,-3.1875 0.76359,-3.974259 5.135233,-4.938019 8.350711,-6.225693 0.822162,-0.329239 1.870084,-0.601807 2.562506,-1.163193 1.976525,-1.602478 1.937505,-3.781334 1.937505,-6.111114 v -5.9375 c 0,-1.408791 0.20434,-3.120018 -0.350691,-4.4375 -0.254391,-0.603836 -0.622602,-1.323609 -1.149313,-1.730904 -0.488381,-0.377647 -1.220073,-0.553657 -1.625004,-1.019096 -0.804802,-0.04171 -1.542984,-1.25866 -2.437506,-0.96875 -0.934162,0.302757 -0.562501,2.337494 -0.562501,3.09375 v 7.125 c 0,0.508766 -0.0594,1.060211 0.0243,1.5625 0.0434,0.260185 0.19907,0.672668 0.0312,0.911461 -0.2045,0.290969 -0.925442,0.579032 -1.243063,0.737846 -0.889892,0.444954 -1.74755,0.961655 -2.625005,1.428818 -2.825366,1.504249 -5.699091,3.07772 -8.432314,4.75 -0.875665,0.535759 -1.803028,0.993827 -2.692713,1.508682 -0.246941,0.142898 -0.779905,0.568481 -1.062503,0.541664 -0.760083,-0.07214 -1.752029,-0.892769 -2.437505,-1.229164 -1.993768,-0.978447 -3.952364,-2.026527 -5.937515,-3.019104 -1.546286,-0.77314 -3.103251,-1.536896 -4.625011,-2.357636 -0.40025,-0.215866 -1.278388,-0.442916 -1.517363,-0.848953 -0.131135,-0.222809 -0.04514,-0.671333 -0.04514,-0.923614 v -2.25 -8.25 -2.25 c 0,-0.280045 0.07546,-0.698059 -0.0625,-0.9375"
     id="path12" /><path
     style="fill:#5f5f5f;fill-opacity:1;stroke:none;stroke-width:1"
     d="m 52.339366,9.687667 c 0.267871,0.354797 0.858012,0.555107 1.250003,0.765625 1.130833,0.607307 2.286875,1.141525 2.987847,2.236114 0.909822,1.4207 0.824662,3.130715 0.824662,4.748261 v 7.5 c 0,1.195312 0.0881,3.2089 -0.937502,4.0625 -0.0268,0.235153 -0.242371,0.381767 -0.381941,0.567711 -0.613802,0.817703 -1.539984,1.178894 -2.479186,1.512153 -0.280641,0.09958 -0.522211,0.324532 -0.826382,0.295136 -0.373971,0.378952 -1.244163,0.57714 -1.750004,0.762153 -1.237913,0.452759 -2.852097,0.913201 -3.937511,1.65625 -0.831362,0.569134 -1.459525,1.272183 -1.960071,2.144097 -0.209787,0.365432 -0.318056,1.281517 -0.602435,1.5 0.07256,0.292732 -0.0625,0.570881 -0.0625,0.875 v 2.375 7.75 16.1875 4.9375 c 0,0.86354 0.123341,1.848228 -0.105903,2.6875 -0.351495,1.286819 -1.029735,2.72409 -1.958337,3.685759 -0.456056,0.47231 -0.918875,0.97532 -1.434032,1.38542 -0.23993,0.191 -0.677008,0.35291 -0.814238,0.61632 l -0.187501,-0.0625 -1.750004,0.9375 -0.687502,0.0625 v 0.0625 c 1.491105,-0.006 3.195294,-0.70754 4.500011,-1.375 0.406152,-0.20778 1.114509,-0.43806 1.312503,-0.875 0.585715,0.0394 1.627404,-1.13742 2.048616,-1.53819 1.403546,-1.335451 2.512526,-3.216356 3.119798,-5.038195 0.24416,-0.732483 0.30025,-1.50029 0.475691,-2.236114 0.605901,-2.541222 0.23091,-5.506638 0.23091,-8.125 v -15.375 -5.875 c 0,-0.761872 -0.0374,-1.934674 0.562502,-2.5 0.0534,-1.156273 1.608104,-1.488259 2.062505,-2.3125 0.477261,0.05414 1.192263,-0.473198 1.625004,-0.6875 1.143842,-0.566468 2.318455,-1.07383 3.475698,-1.598961 0.444281,-0.201607 1.172433,-0.730828 1.649314,-0.713539 l 0.0625,-0.1875 0.1875,0.0625 0.861113,-0.442711 2.013894,-0.921875 1.062503,-0.635414 0.1875,0.0625 c 0.502232,-0.695145 1.292534,-0.97213 1.671874,-1.8125 0.715792,-1.585724 0.515632,-3.414002 0.515632,-5.125 v -5.9375 c 0,-0.985291 0.14888,-2.164475 -0.0868,-3.125 -0.12407,-0.505654 -0.36858,-0.949257 -0.538191,-1.4375 L 64.193565,10.708503 63.349813,10.156417 63.276913,9.937667 60.714407,8.494956 59.776905,8.005378 57.9019,8.383849 54.401892,9.217177 52.339387,9.687667"
     id="path10" /><path
     style="fill:#ffffff;fill-opacity:1;stroke:none;stroke-width:1"
     d="m 34.526861,35.014056 c 1.899564,-0.268227 3.810247,0.868301 4.350704,2.736111 0.332039,1.147518 0.149307,2.50164 0.149307,3.6875 v 23.8125 c 0,2.533676 0.580842,5.944244 -2.312506,7.163192 -0.43575,0.183579 -0.905462,0.284859 -1.375003,0.331597 -0.470429,0.04683 -0.992117,-0.05776 -1.437503,-0.203125 -3.045353,-0.993965 -2.687507,-4.094506 -2.687507,-6.666664 v -23.4375 c 0,-2.460896 -0.568036,-5.649906 2.062505,-7.01389 0.386766,-0.200542 0.817099,-0.348594 1.250003,-0.409721"
     id="path28" /><path
     style="fill:#1c425f;fill-opacity:1;stroke:none;stroke-width:1"
     d="m 35.089362,35.281416 c -0.677792,0.225925 -1.127104,1.046455 -1.385421,1.65625 -0.707479,1.670116 -0.364583,3.847854 -0.364583,5.625 v 22.625 c 0,1.786934 -0.276722,3.832611 0.211809,5.5625 0.331261,1.173004 0.950304,1.980308 2.225697,1.661461 0.435338,-0.108834 0.866606,-0.249154 1.250003,-0.486115 2.42121,-1.496437 1.812504,-4.687172 1.812504,-7.112846 v -22.6875 c 0,-2.277939 0.464934,-5.218926 -2.000004,-6.45139 -0.475763,-0.23788 -1.205912,-0.573722 -1.750005,-0.39236"
     id="path30" /></g></svg>
